<svg xmlns="http://www.w3.org/2000/svg" xmlns:xlink="http://www.w3.org/1999/xlink" viewBox="0,0,256,256" width="480px" height="480px"><g fill="none" fill-rule="nonzero" stroke="none" stroke-width="1" stroke-linecap="butt" stroke-linejoin="miter" stroke-miterlimit="10" stroke-dasharray="" stroke-dashoffset="0" font-family="none" font-weight="none" font-size="none" text-anchor="none" style="mix-blend-mode: normal"><g transform="scale(5.33333,5.33333)"><path d="M44.099,8.487l-2.828,-2.829c-0.188,-0.188 -0.441,-0.293 -0.707,-0.293c-0.266,0 -0.52,0.105 -0.707,0.293l-16.491,16.491l-15.951,-15.804l-2.828,2.828c-0.391,0.391 -0.391,1.023 0,1.414l17.574,17.574c0.507,0.507 1.173,0.761 1.839,0.761c0.666,0 1.332,-0.254 1.839,-0.761l0.497,-0.497z" fill="#70bdca"></path><path d="M23.027,22.956c-0.256,0 -0.512,-0.098 -0.707,-0.293l-14.905,-14.904c-0.391,-0.391 -0.391,-1.023 0,-1.414c0.391,-0.391 1.023,-0.391 1.414,0l14.905,14.904c0.391,0.391 0.391,1.023 0,1.414c-0.195,0.195 -0.451,0.293 -0.707,0.293z" fill="#324561"></path><path d="M25.629,27.957c-0.256,0 -0.512,-0.098 -0.707,-0.293c-0.391,-0.391 -0.391,-1.023 0,-1.414l17.763,-17.763c0.391,-0.391 1.023,-0.391 1.414,0c0.391,0.391 0.391,1.023 0,1.414l-17.763,17.763c-0.195,0.195 -0.451,0.293 -0.707,0.293z" fill="#324561"></path><path d="M44.099,23.487l-2.828,-2.829c-0.188,-0.188 -0.441,-0.293 -0.707,-0.293c-0.266,0 -0.52,0.105 -0.707,0.293l-16.491,16.491l-15.951,-15.804l-2.828,2.828c-0.391,0.391 -0.391,1.023 0,1.414l17.574,17.574c0.507,0.507 1.173,0.761 1.839,0.761c0.666,0 1.332,-0.254 1.839,-0.761l0.497,-0.497z" fill="#70bdca"></path><path d="M23.027,37.956c-0.256,0 -0.512,-0.098 -0.707,-0.293l-14.905,-14.904c-0.391,-0.391 -0.391,-1.023 0,-1.414c0.391,-0.391 1.023,-0.391 1.414,0l14.905,14.904c0.391,0.391 0.391,1.023 0,1.414c-0.195,0.195 -0.451,0.293 -0.707,0.293z" fill="#324561"></path><path d="M25.629,42.957c-0.256,0 -0.512,-0.098 -0.707,-0.293c-0.391,-0.391 -0.391,-1.023 0,-1.414l17.763,-17.763c0.391,-0.391 1.023,-0.391 1.414,0c0.391,0.391 0.391,1.023 0,1.414l-17.763,17.763c-0.195,0.195 -0.451,0.293 -0.707,0.293z" fill="#324561"></path></g></g></svg>